{
  "accessors": [
    {
      "bufferView": 0,
      "componentType": 5126,
      "count": 607,
      "max": [
        1.0000008344650269,
        0.652357816696167,
        0.8655309081077576
      ],
      "min": [
        -1.0,
        -0.6523569822311401,
        -0.8655310273170471
      ],
      "type": "VEC3"
    },
    {
      "bufferView": 1,
      "componentType": 5125,
      "count": 1251,
      "type": "SCALAR"
    },
    {
      "bufferView": 2,
      "componentType": 5126,
      "count": 607,
      "type": "VEC3"
    },
    {
      "bufferView": 3,
      "componentType": 5126,
      "count": 607,
      "type": "VEC4"
    },
    {
      "bufferView": 4,
      "componentType": 5126,
      "count": 607,
      "type": "VEC2"
    },
    {
      "bufferView": 5,
      "componentType": 5126,
      "count": 607,
      "max": [
        1.0000008344650269,
        0.652357816696167,
        0.8655309081077576
      ],
      "min": [
        -1.0,
        -0.6523569822311401,
        -0.8655310273170471
      ],
      "type": "VEC3"
    },
    {
      "bufferView": 6,
      "componentType": 5123,
      "count": 12,
      "type": "SCALAR"
    },
    {
      "bufferView": 7,
      "componentType": 5126,
      "count": 607,
      "type": "VEC3"
    },
    {
      "bufferView": 8,
      "componentType": 5126,
      "count": 607,
      "type": "VEC4"
    },
    {
      "bufferView": 9,
      "componentType": 5126,
      "count": 607,
      "type": "VEC2"
    }
  ],
  "asset": {
    "version": "2.0"
  },
  "bufferViews": [
    {
      "buffer": 0,
      "byteLength": 7284,
      "target": 34962
    },
    {
      "buffer": 1,
      "byteLength": 5004,
      "target": 34963
    },
    {
      "buffer": 2,
      "byteLength": 7284,
      "target": 34962
    },
    {
      "buffer": 3,
      "byteLength": 9712,
      "target": 34962
    },
    {
      "buffer": 4,
      "byteLength": 4856,
      "target": 34962
    },
    {
      "buffer": 0,
      "byteLength": 7284,
      "target": 34962
    },
    {
      "buffer": 5,
      "byteLength": 24,
      "target": 34963
    },
    {
      "buffer": 2,
      "byteLength": 7284,
      "target": 34962
    },
    {
      "buffer": 3,
      "byteLength": 9712,
      "target": 34962
    },
    {
      "buffer": 4,
      "byteLength": 4856,
      "target": 34962
    }
  ],
  "buffers": [
    {
      "byteLength": 7284,
      "uri": "data:application/octet-stream;base64,"
    },
    {
      "byteLength": 5004,
      "uri": "data:application/octet-stream;base64,"
    },
    {
      "byteLength": 7284,
      "uri": "data:application/octet-stream;base64,"
    },
    {
      "byteLength": 9712,
      "uri": "data:application/octet-stream;base64,"
    },
    {
      "byteLength": 4856,
      "uri": "data:application/octet-stream;base64,"
    },
    {
      "byteLength": 24,
      "uri": "data:application/octet-stream;base64,"
    }
  ],
  "materials": [
    {
      "doubleSided": true,
      "name": "lambert1",
      "normalTexture" : {
      "index" : 4,
      "scale" : 2
      },
      "occlusionTexture" : {
      "index" : 0
      },
      "pbrMetallicRoughness": {
        "baseColorTexture" : {"index" : 1},
        "metallicFactor" : 0,
        "metallicRoughnessTexture" : { "index" : 2 },
        "baseColorFactor": [
          1.0,
          1.0,
          1.0,
          1.0
        ]
      }
    }
  ],
  "images": [
    {
         "uri" : "3f5c1b3fc56447ed89ace51229a7f23a_R_lambert1_AO.jpeg"
    },
    {
         "uri" : "44a13cb9befc4f7b82c8052ffd208295_RGB_lambert1_albedo.jpeg"
    },
    {
         "uri" : "ad53f357a4d04ecaaa39af0114d18bb5_R_lambert1_roughness.jpeg"
    },
    {
         "uri" : "e2525c25283f4778ae35e3ebaa6b94d2_R_lambert1_metallic.jpeg"
    },
    {
         "uri" : "eddacca38cc64fc786559c10a44c21ab_N_lambert1_normal.png"
    }
  ],
  "textures": [
    {
         "source" : 0
    },
    {
         "source" : 1
    },
    {
         "source" : 2
    },
    {
         "source" : 3
    },
    {
         "source" : 4
    }
  ],
  "meshes": [
    {
      "name": "defaultMaterial",
      "primitives": [
        {
          "attributes": {
            "NORMAL": 2,
            "POSITION": 0,
            "TANGENT": 3,
            "TEXCOORD_0": 4
          },
          "indices": 1,
          "mode": 5
        },
        {
          "attributes": {
            "NORMAL": 7,
            "POSITION": 5,
            "TANGENT": 8,
            "TEXCOORD_0": 9
          },
          "indices": 6,
          "mode": 4
        }
      ]
    }
  ],
  "nodes": [
    {
      "mesh": 0,
      "name": "defaultMaterial"
    },
    {
      "children": [
        0
      ],
      "name": "GameRes"
    },
    {
      "children": [
        1
      ],
      "name": "Collada visual scene group",
      "rotation": [
        2.1855700111022284e-08,
        0.0,
        0.0,
        0.9999999999999998
      ],
      "scale": [
        1.0,
        1.0,
        1.0
      ],
      "translation": [
        0.0,
        0.0,
        0.0
      ]
    }
  ],
  "scene": 0,
  "scenes": [
    {
      "nodes": [
        2
      ]
    }
  ]
}
